<?xml version="1.0" encoding="UTF-8"?>
<!DOCTYPE svg PUBLIC "-//W3C//DTD SVG 1.1//EN" "http://www.w3.org/Graphics/SVG/1.1/DTD/svg11.dtd">
<!-- Creator: CorelDRAW 2019 (64-Bit) -->
<svg xmlns="http://www.w3.org/2000/svg" xml:space="preserve" width="99.836mm" height="99.836mm" version="1.1" style="shape-rendering:geometricPrecision; text-rendering:geometricPrecision; image-rendering:optimizeQuality; fill-rule:evenodd; clip-rule:evenodd"
viewBox="0 0 9983.6 9983.6"
 xmlns:xlink="http://www.w3.org/1999/xlink">
 <defs>
  <style type="text/css">
   <![CDATA[
    .fil1 {fill:#FEFEFE;fill-rule:nonzero}
    .fil0 {fill:#222D55;fill-rule:nonzero}
   ]]>
  </style>
 </defs>
 <g id="Layer_x0020_1">
  <metadata id="CorelCorpID_0Corel-Layer"/>
  <polygon class="fil0" points="-0.01,9983.61 10000.08,9983.61 10000.08,-16.38 -0.01,-16.38 "/>
  <path class="fil1" d="M1979.15 8302.3c0,-348.93 -169.23,-592.42 -454.62,-592.42 -310.26,0 -454.96,292.38 -454.96,592.42 0,348.8 169.3,592.06 454.96,592.06 310.2,0 454.62,-292.34 454.62,-592.06l0 0zm211.67 -6.92c0,383.79 -296.21,662.41 -666.29,662.41 -377.31,0 -666.42,-281.75 -666.42,-648.68 0,-384.03 296.14,-662.7 666.42,-662.7 377.24,0 666.29,282.13 666.29,648.97l0 0z"/>
  <path class="fil1" d="M6047.84 8302.3c0,-348.93 -169.37,-592.42 -454.84,-592.42 -310.23,0 -454.73,292.38 -454.73,592.42 0,348.8 169.23,592.06 454.73,592.06 310.2,0 454.84,-292.34 454.84,-592.06l0 0zm211.46 -6.92c0,383.79 -296.13,662.41 -666.3,662.41 -377.29,0 -666.43,-281.75 -666.43,-648.68 0,-384.03 296.23,-662.7 666.43,-662.7 377.27,0 666.3,282.13 666.3,648.97l0 0z"/>
  <path class="fil1" d="M7066.7 8513.51c-74.08,-105.76 -102.31,-144.32 -193.89,-144.32l-98.81 0 0 430.1c0,35.28 14.11,52.6 52.99,59.79l144.49 31.73 0 46.04 -567.62 0 0 -46.04 130.5 -31.73c38.66,-10.4 52.77,-24.51 52.77,-59.79l0 -994.27c0,-35.3 -14.11,-49.32 -52.77,-59.83l-130.5 -31.75 0 -46 553.48 0c116.45,0 197.48,10.72 264.44,35.21 137.55,53.05 215.05,183.69 215.05,306.74 0,155.37 -116.31,285.99 -310.27,331.33l0 7.06c38.88,17.98 59.94,42.51 197.49,222.57l172.72 228.94c24.69,35.28 56.44,56.24 95.25,63.47l126.89 28.05 0 46.04 -303.17 0c-35.28,0 -52.92,-10.77 -84.6,-53.21l-264.44 -370.13 0 0zm-292.7 -204.4l158.68 0c239.78,0 292.7,-151.34 292.7,-296.13 0,-109.28 -49.39,-211.55 -162.21,-260.76 -59.94,-24.77 -116.38,-24.77 -193.96,-24.77l-95.21 0 0 581.66z"/>
  <path class="fil1" d="M4581.1 8101.11l52.91 0 0 423.19 -52.91 0 -31.75 -126.86c-10.62,-46 -38.81,-63.5 -81.04,-63.5l-306.84 0 0 465.35c0,35.28 14.14,52.6 52.91,59.79l144.57 31.73 0 46.04 -567.55 0 0 -46.04 130.43 -31.73c38.8,-10.4 52.91,-24.51 52.91,-59.79l0 -994.27c0,-35.3 -14.11,-49.32 -52.91,-59.83l-130.43 -31.75 0 -46 958.92 0 0 317.64 -52.91 0 -59.87 -190.64c-14.15,-49.25 -35.28,-66.99 -77.61,-66.99l-398.46 0 0 546.42 306.84 0c42.23,0 66.89,-17.39 81.04,-63.47l31.75 -109.29 0 0z"/>
  <path class="fil1" d="M8191.32 7727.45l0 1092.76c0,46.08 10.55,56.87 56.41,56.87l155.11 0c148.07,0 257.36,-21.55 334.93,-77.79 130.42,-95.07 190.4,-267.86 190.4,-486.59 0,-215.05 -59.98,-426.36 -236.22,-528.66 -73.98,-42.45 -169.23,-56.59 -317.36,-56.59l-183.27 0 0 0zm-370.21 1209.4l0 -46.04 130.43 -31.73c38.87,-10.4 52.91,-24.51 52.91,-59.79l0 -994.27c0,-35.3 -14.04,-49.32 -52.91,-59.83l-130.43 -31.75 0 -46 595.85 0c162.13,0 278.51,21.21 373.73,63.5 239.71,109.36 349.07,345.47 349.07,578.17 0,225.96 -84.7,437.2 -299.75,549.97 -98.64,53.21 -236.19,77.77 -415.96,77.77l-602.94 0 0 0z"/>
  <path class="fil1" d="M2687.94 8890.81l0 46.04 -447.72 0 0 -46.04 112.65 -28.05c42.51,-10.87 70.56,-24.59 98.74,-56.3l387.91 -486.59 -387.91 -514.85c-24.6,-35.3 -56.23,-52.8 -95.15,-63.43l-105.84 -28.15 0 -46 557.07 0 0 46 -119.75 24.55c-42.44,7.2 -31.83,24.7 -10.75,52.99l285.6 408.97 7.03 0 292.7 -408.97c21.15,-28.29 28.24,-38.76 -10.55,-49.39l-112.86 -28.15 0 -46 447.79 0 0 46 -112.86 28.15c-42.23,10.63 -70.48,24.6 -98.73,56.31l-366.63 462.18 408.93 539.21c24.81,35.28 56.43,52.6 95.23,63.47l105.84 28.05 0 46.04 -557.09 0 0 -46.04 119.83 -24.52c42.37,-7.21 35.27,-20.92 14.12,-49.71l-310.26 -437.05 -7.03 0 -313.71 434.09c-21.23,28.11 -28.25,38.27 10.47,49.14l112.93 28.05 0 0z"/>
  <path class="fil1" d="M1352.46 7070.12c-35.06,35.07 -87.68,58.49 -161.03,58.49 -63.99,0 -123.26,-20.19 -163.39,-60.29 -54.75,-54.74 -52.25,-124.6 -52.25,-199.29l0 -353.02 71.98 0 0 379.23c0,48.03 -1.44,94.77 35.61,131.88 25.72,25.65 65.22,39.53 110.77,39.53 44.51,0 80.2,-15.37 102.5,-37.67 41.27,-41.23 38.65,-86.18 38.65,-194.8l0 -318.17 70.9 0 0 299.51c0,113.77 4.62,196.25 -53.74,254.6z"/>
  <polygon class="fil1" points="1991.34,7117.29 1701.68,6624.42 1703.47,7117.29 1637.32,7117.29 1637.32,6515.98 1711.16,6515.98 2001.81,7011.59 2000.03,6515.98 2066.17,6515.98 2066.17,7117.29 "/>
  <polygon class="fil1" points="2316.89,7117.21 2389.24,7117.21 2389.24,6516 2316.89,6516 "/>
  <polygon class="fil1" points="2839.04,7117.21 2756.22,7117.21 2548.9,6516.01 2624.28,6516.01 2799.7,7046.8 2980.31,6516.01 3050.3,6516.01 "/>
  <polygon class="fil1" points="3213.98,7117.21 3213.98,6516.01 3540.83,6516.01 3540.83,6575.98 3284.84,6575.98 3284.84,6774.39 3525.16,6774.39 3525.16,6832.84 3284.84,6832.84 3284.84,7055.44 3548.02,7055.44 3548.02,7117.21 "/>
  <path class="fil1" d="M4070.77 7117.21l-69.08 -155.82c-42.79,-95.84 -62.3,-105.68 -149.47,-105.68l-41.94 0 0 261.5 -70.88 0 0 -601.2 129.69 0c80.25,0 140.75,-0.53 188.06,46.78 30.09,30.06 46.89,70.06 46.89,120.22 0,41.77 -12.14,76.57 -37.33,103.34 -21.66,23.03 -57.47,43.21 -96.45,47.4 21.2,1.2 38.67,12.6 50.03,24 16.36,16.37 28.29,41.13 45.89,80.43l79.87 179.03 -75.28 0zm-65.69 -510.71c-34.47,-34.5 -79.2,-32.92 -128.2,-32.92l-66.6 0 0 224.55 23.92 0c60.71,0 126.04,3.14 167.28,-38.1 19.97,-19.9 31.08,-47.87 31.08,-78.35 0,-33.84 -13.26,-61 -27.48,-75.18z"/>
  <polygon class="fil1" points="4848.4,7117.21 4920.72,7117.21 4920.72,6516 4848.4,6516 "/>
  <polygon class="fil1" points="5333.57,6575.98 5333.57,7117.21 5261.25,7117.21 5261.25,6575.98 5082.57,6575.98 5082.57,6516.01 5511.72,6516.01 5511.72,6575.98 "/>
  <polygon class="fil1" points="5857.8,6879.62 5857.8,7117.21 5786.36,7117.21 5786.36,6879.62 5595.51,6516.01 5678.2,6516.01 5826.37,6797.98 5970.3,6515.98 6048.65,6516.01 "/>
  <path class="fil1" d="M6723.34 7128.61c-155.61,0 -269.38,-128.55 -269.38,-309.28 0,-185.71 112.53,-314.72 274.92,-314.72 157.41,0 268.5,127.68 268.5,309.22 0,186.09 -111.34,314.78 -274.04,314.78zm-0.21 -562.54c-117.86,0 -194.35,99.48 -194.35,249.45 0,149.37 85.16,251.13 198.16,251.13 125.66,0 195.58,-106.92 195.58,-255.9 0,-146.65 -82.55,-244.68 -199.39,-244.68z"/>
  <polygon class="fil1" points="7266.86,6575.98 7266.86,6774.39 7499.35,6774.39 7499.35,6832.84 7266.86,6832.84 7266.86,7117.21 7195.11,7117.21 7195.11,6516.01 7514.41,6516.01 7514.41,6575.98 "/>
  <path class="fil1" d="M4291.82 6662.7c0,-92.4 74.33,-158.19 182.91,-158.19 109.93,0 162.67,56.79 168.07,62.65l-35.28 42.73c-13.48,-10.38 -61.6,-45.76 -128.02,-45.76 -76.73,0 -119.21,40.07 -119.21,94.47 0,26.35 10.8,45.33 28.19,60.89 20.6,18.49 50.69,32.17 83.08,47.1 40.32,18.52 95.57,39.37 132.54,77.79 25.64,26.53 45.01,61.06 45.01,108.44 0,100.01 -69.39,176.14 -194.2,176.14 -106.33,0 -173.46,-58.56 -179.78,-64.41l33.16 -48.8c17.08,12.71 83.82,52.22 144.85,52.22 90.46,0 124.32,-49.53 124.32,-109.3 0,-27.75 -12.63,-50.09 -31.32,-68 -28.08,-27.07 -70.52,-45.13 -111.2,-63.72 -40.43,-18.48 -79.3,-37.79 -106.86,-66.74 -18.16,-19.09 -36.26,-50.27 -36.26,-97.51z"/>
  <path class="fil1" d="M7053.79 2448.31c0,-75.53 -25.58,-136.49 -80.9,-168.98 -34.67,-20.36 -81.63,-26.99 -139.45,-26.99l-421 -0.07 0 850.05 458.18 0c105.59,0 167.72,23.78 173.15,118.53l10.09 0 -0.07 -772.54z"/>
  <path class="fil1" d="M7112.63 2448.31c0,-75.53 25.54,-136.49 80.89,-168.98 34.68,-20.36 81.6,-26.99 139.49,-26.99l423.9 -0.07 0 850.05 -461.12 0c-105.62,0 -167.74,23.78 -173.14,118.53l-10.09 0 0.07 -772.54z"/>
  <path class="fil1" d="M7844.89 2315.13c0,0 0,843.49 0,898.6 -53.55,0 -650.91,0 -650.91,0l-7.41 18.38c-11.36,28.04 -31.64,53.97 -102.73,53.97 -70.98,0 -91.3,-25.93 -102.62,-53.97l-7.44 -18.38c0,0 -596.27,0 -649.86,0 0,-55.11 0,-898.6 0,-898.6l-58.77 0 0 27.38 -56.34 -17.32c-6.56,-22.19 -26.84,-38.49 -51.15,-38.49 -29.49,0 -53.52,23.95 -53.52,53.52 0,29.59 24.03,53.55 53.52,53.55 12.95,0 24.66,-4.77 33.87,-12.39l73.62 22.62 0 72.25 -55.31 -9.95c-8.19,-19.09 -27.17,-32.49 -49.25,-32.49 -29.49,0 -53.48,23.95 -53.48,53.55 0,29.56 23.99,53.52 53.48,53.52 15.27,0 29,-6.5 38.73,-16.73l65.83 11.79 0 73.66 -57.78 -2.54c-9.39,-15.6 -26.28,-26.14 -45.76,-26.14 -29.53,0 -53.55,23.98 -53.55,53.51 0,29.6 24.02,53.55 53.55,53.55 17.82,0 33.52,-8.82 43.22,-22.22l60.32 2.68 0 80.01 -59.09 2.12c-9.7,-13.59 -25.5,-22.55 -43.5,-22.55 -29.49,0 -53.55,23.99 -53.55,53.56 0,29.56 24.06,53.51 53.55,53.51 19.37,0 36.16,-10.37 45.58,-25.75l57.01 -2.05 0 73.73 -64.63 11.12c-9.77,-10.41 -23.56,-17.01 -38.91,-17.01 -29.53,0 -53.55,23.99 -53.55,53.55 0,29.57 24.02,53.52 53.55,53.52 21.94,0 40.78,-13.26 49,-32.17l54.54 -9.35 0 72.39 -70.66 21.59c-9.24,-7.66 -20.95,-12.42 -33.9,-12.42 -29.49,0 -53.48,23.99 -53.48,53.55 0,29.57 23.99,53.52 53.48,53.52 24.31,0 44.59,-16.3 51.15,-38.49l53.41 -16.3 0 70.03 -78.07 33.69c-8.43,-5.57 -18.52,-8.86 -29.42,-8.86 -29.49,0 -53.52,23.96 -53.52,53.52 0,29.56 24.03,53.55 53.52,53.55 26.35,0 48.19,-19.12 52.6,-44.2l54.89 -23.71 0 63.96c0,0 641.28,0 672.43,0 27.31,47.7 74.58,72.36 146.26,72.36 71.76,0 119.03,-24.66 146.37,-72.36 31.12,0 673.49,0 673.49,0l0 -957.37 -58.81 0z"/>
  <path class="fil1" d="M6641.5 2015.45c-135.89,0 -246.07,21.13 -246.07,47.2 0,26.11 110.18,47.2 246.07,47.2 135.89,0 246.06,-21.09 246.06,-47.2 0,-26.07 -110.17,-47.2 -246.06,-47.2z"/>
  <path class="fil1" d="M6980.34 1720.63l-142.1 99.84 -1.2 10.12 33.76 15.17c6.7,3.35 6.77,8.72 3.35,11.96l-89.25 75.32 -8.5 -0.74 -63.18 -93.17c-4.38,-6.07 -2.79,-12.06 4.83,-13.33l42.44 -6.92 0 -10.72 -110 -155.4 -18.1 0 -109.96 155.4 0 10.72 42.44 6.92c7.59,1.27 9.17,7.26 4.84,13.33l-63.26 93.17 -8.46 0.74 -83.33 -75.32c-3.39,-3.24 -3.32,-8.61 3.32,-11.96l33.79 -15.17 -1.23 -10.12 -147.96 -99.84 -11.99 4.69 86.89 265.47c44.09,-19.83 145.38,-33.76 263.94,-34.33 118.64,0.57 219.93,14.5 264.02,34.33l86.89 -265.47 -11.99 -4.69z"/>
  <path class="fil1" d="M7082.86 3795.46c-135.96,0 -246.1,21.13 -246.1,47.2 0,26.07 110.14,47.2 246.1,47.2 135.85,0 246.02,-21.13 246.02,-47.2 0,-26.07 -110.17,-47.2 -246.02,-47.2z"/>
  <path class="fil1" d="M7421.63 3500.64l-142.07 99.84 -1.19 10.12 33.76 15.17c6.66,3.32 6.73,8.72 3.35,11.96l-89.26 75.32 -8.46 -0.78 -63.22 -93.16c-4.34,-6.04 -2.79,-12.07 4.87,-13.34l42.4 -6.91 0 -10.69 -109.96 -155.44 -18.13 0 -109.96 155.44 0 10.69 42.44 6.91c7.62,1.27 9.2,7.3 4.83,13.34l-63.22 93.16 -8.46 0.78 -83.37 -75.32c-3.38,-3.24 -3.31,-8.64 3.32,-11.96l33.8 -15.17 -1.24 -10.12 -147.92 -99.84 -11.99 4.69 86.85 265.47c44.1,-19.83 145.38,-33.76 263.99,-34.33 118.6,0.57 219.88,14.5 263.98,34.33l86.85 -265.47 -11.99 -4.69z"/>
  <path class="fil1" d="M7523.09 2015.45c-135.89,0 -246.07,21.13 -246.07,47.2 0,26.11 110.18,47.2 246.07,47.2 135.89,0 246.02,-21.09 246.02,-47.2 0,-26.07 -110.13,-47.2 -246.02,-47.2z"/>
  <path class="fil1" d="M7861.89 1720.63l-142.02 99.84 -1.27 10.12 33.76 15.17c6.7,3.35 6.77,8.72 3.35,11.96l-89.22 75.32 -8.47 -0.74 -63.18 -93.17c-4.37,-6.07 -2.82,-12.06 4.8,-13.33l42.44 -6.92 0 -10.72 -110 -155.4 -18.06 0 -110 155.4 0 10.72 42.48 6.92c7.55,1.27 9.14,7.26 4.8,13.33l-63.26 93.17 -8.46 0.74 -83.29 -76.31c-3.43,-3.24 -3.39,-8.6 3.28,-11.96l33.79 -14.18 -1.27 -10.12 -147.92 -99.84 -11.99 4.69 86.89 265.47c44.06,-19.83 145.34,-33.76 263.95,-34.33 118.64,0.57 219.92,14.5 264.02,34.33l86.85 -265.47 -12 -4.69z"/>
  <path class="fil0" d="M6511.96 2479.17c0,16.66 4.12,19.87 13.08,19.87 16.16,0 32.46,-17.82 32.46,-51.02 0,-40.25 -20.43,-51.5 -36.34,-51.5 -4.34,0 -6.74,0.6 -8.08,1.34 -0.95,0.35 -1.12,4.69 -1.12,9.35l0 71.96zm9.2 -92.03c23.04,0 42.16,4.51 54.68,16.68 8.82,8.43 16.16,22.3 16.16,38.42 0,46.67 -35.42,66.71 -78.74,66.71l-48.33 0 0 -7.3c13.69,-1.13 15.17,-2.44 15.17,-22.69l0 -61.84c0,-20.21 -1.48,-21.55 -13.69,-22.65l0 -7.33 54.75 0z"/>
  <path class="fil0" d="M6643.12 2443.37c0,33.94 12.73,58.66 31.11,58.66 16.13,0 24.91,-15.55 24.91,-49.49 0,-37.64 -13.48,-58.46 -29.6,-58.46 -14.43,0 -26.42,16.48 -26.42,49.29zm90.91 3.21c0,40.11 -27.38,65.19 -63.36,65.19 -37.82,0 -62.37,-27.59 -62.37,-62.05 0,-30.34 20.21,-65.37 65.02,-65.37 34.25,0 60.71,25.12 60.71,62.23z"/>
  <path class="fil0" d="M6899.52 2387.14l0 7.33c-14.29,1.31 -15.03,2.05 -14.47,21.73l1.87 62.76c0.57,20.82 0.92,21.38 14.4,22.69l0 7.3 -58.64 0 0 -7.3c14.08,-1.31 14.64,-1.87 14.43,-22.69l-0.53 -65.97 -0.81 0 -36.12 93.91 -10.09 0 -34.33 -87.31 -0.38 0 -1.31 41.59c-0.56,16.13 -0.35,25.09 0.39,30.87 0.74,6.99 4.87,8.68 17.04,9.6l0 7.3 -46.29 0 0 -7.3c9.03,-0.78 12.56,-2.61 13.69,-9.6 0.95,-5.78 2.05,-15.7 3,-32.77l2.05 -37.85c1.3,-23.57 -0.18,-25.65 -15,-26.96l0 -7.33 44.06 0 32.81 74.22 28.68 -74.22 45.55 0z"/>
  <path class="fil0" d="M6960.34 2478.96c0,20.25 1.51,21.56 14.42,22.69l0 7.3 -60.67 0 0 -7.3c12.91,-1.13 14.39,-2.44 14.39,-22.69l0 -61.84c0,-20.21 -1.48,-21.55 -14.39,-22.65l0 -7.33 60.67 0 0 7.33c-12.91,1.1 -14.42,2.44 -14.42,22.65l0 61.84z"/>
  <path class="fil0" d="M6658.57 2735.12l-16.09 0 -69.32 -88.45 -0.42 0 0 34.47c0,19.69 0.78,29.99 1.52,35.81 0.95,6.56 5.99,8.99 18.34,9.56l0 7.3 -46.64 0 0 -7.3c8.26,-0.39 13.09,-3 14.08,-9.56 0.7,-5.82 1.48,-16.12 1.48,-35.81l0 -34.47c0,-13.86 -0.39,-16.33 -4.16,-21.55 -2.79,-3.95 -7.45,-5.22 -14.18,-5.82l0 -7.3 41.38 0 62.37 77.78 0.39 0 0 -25.11c0,-19.69 -0.74,-29.99 -1.49,-35.78 -0.95,-6.56 -6.03,-8.99 -18.34,-9.59l0 -7.3 47.73 0 0 7.3c-9.31,0.39 -14.22,3.03 -15.13,9.59 -0.74,5.79 -1.52,16.09 -1.52,35.78l0 70.45z"/>
  <path class="fil0" d="M6734.45 2735.12c-12.91,-33.73 -30.51,-80.01 -37.29,-97.62 -6.13,-16.12 -9.91,-17.07 -18.91,-18.2l0 -7.3 60.54 0 0 7.3 -6.38 0.77c-6.92,0.75 -6.92,2.44 -4.87,9 3.35,10.44 18.17,47.41 25.15,65.76 5.79,-15.91 17.75,-51.72 20.74,-60.5 3.96,-11.47 2.83,-13.51 -5.6,-14.43l-5.61 -0.6 0 -7.3 45.33 0 0 7.3c-10.69,1.34 -13.3,2.29 -20.64,19.33 -1.09,2.61 -23.95,58.28 -37.99,96.49l-14.47 0z"/>
  <path class="fil0" d="M6818.98 2695.22c3.95,10.9 14.99,31.68 33.37,31.68 9.74,0 17.22,-6.39 17.22,-18.6 0,-11 -7.27,-17.21 -18.74,-22.47l-2.78 -1.34c-15.38,-7.09 -32.81,-16.83 -32.81,-36.86 0,-21.17 15.38,-38.46 44.8,-38.46 5.79,0 11.78,0.74 17.25,2.3 4.27,1.09 7.27,1.83 9.7,2.61 0.78,7.3 2.08,16.47 4.13,29.21l-8.25 1.3c-4.1,-12.34 -10.66,-25.64 -25.51,-25.64 -9.52,0 -16.3,7.3 -16.3,16.29 0,9.35 7.34,14.82 19.33,20.25l4.1 1.87c17.28,7.87 32.06,17.43 32.06,39.34 0,23.07 -18.55,39.9 -47.59,39.9 -7.47,0 -15.2,-1.48 -20.25,-3.18 -5.57,-1.87 -9.56,-3.38 -11.78,-4.48 -1.52,-8.64 -3.91,-18.73 -6.21,-31.29l8.26 -2.43z"/>
  <path class="fil0" d="M6575.24 2928.68c0,20.22 1.49,21.52 14.4,22.69l0 7.3 -60.68 0 0 -7.3c12.91,-1.17 14.43,-2.47 14.43,-22.69l0 -61.87c0,-20.22 -1.52,-21.52 -14.43,-22.65l0 -7.3 60.68 0 0 7.3c-12.91,1.13 -14.4,2.43 -14.4,22.65l0 61.87z"/>
  <path class="fil0" d="M6649.47 2931.12c0,9.74 0.35,14.43 3.7,16.09 3.04,1.51 7.3,1.69 13.13,1.69 5.99,0 14.07,-0.53 17.99,-5.43 3,-3.53 6.17,-8.61 9.2,-18.56l8.05 1.34c-1.13,7.13 -5.05,26.6 -6.74,32.42l-92.96 0 0 -7.3c14.22,-1.17 15.74,-2.47 15.74,-22.69l0 -61.87c0,-20.22 -1.52,-21.52 -14.04,-22.65l0 -7.3 60.92 0 0 7.3c-13.51,1.13 -14.99,2.43 -14.99,22.65l0 64.31z"/>
  <path class="fil0" d="M6754.03 2931.12c0,9.74 0.35,14.43 3.74,16.09 3,1.51 7.27,1.69 13.09,1.69 6,0 14.07,-0.53 17.99,-5.43 3,-3.53 6.17,-8.61 9.21,-18.56l8.04 1.34c-1.09,7.13 -5.04,26.6 -6.74,32.42l-92.95 0 0 -7.3c14.21,-1.17 15.73,-2.47 15.73,-22.69l0 -61.87c0,-20.22 -1.52,-21.52 -14.04,-22.65l0 -7.3 60.89 0 0 7.3c-13.48,1.13 -14.96,2.43 -14.96,22.65l0 64.31z"/>
  <path class="fil0" d="M6843.57 2959.98c-12.95,-33.73 -30.55,-80.01 -37.29,-97.65 -6.21,-16.09 -9.92,-17.04 -18.95,-18.17l0 -7.3 60.54 0 0 7.3 -6.38 0.74c-6.92,0.74 -6.92,2.43 -4.87,9.03 3.38,10.48 18.16,47.41 25.11,65.76 5.79,-15.95 17.78,-51.72 20.82,-60.54 3.91,-11.43 2.79,-13.51 -5.65,-14.39l-5.61 -0.6 0 -7.3 45.34 0 0 7.3c-10.69,1.3 -13.3,2.26 -20.61,19.33 -1.12,2.58 -23.98,58.24 -38.02,96.49l-14.43 0z"/>
  <path class="fil0" d="M7346.87 2387.14l0 7.33c-14.25,1.31 -14.99,2.05 -14.46,21.73l1.91 62.76c0.52,20.82 0.88,21.38 14.39,22.69l0 7.3 -58.63 0 0 -7.3c14.04,-1.31 14.64,-1.87 14.43,-22.69l-0.53 -65.97 -0.81 0 -36.13 93.91 -10.12 0 -34.29 -87.31 -0.39 0 -1.31 41.59c-0.6,16.13 -0.39,25.09 0.39,30.87 0.71,6.99 4.83,8.68 17.04,9.6l0 7.3 -46.28 0 0 -7.3c8.99,-0.78 12.55,-2.61 13.65,-9.6 0.99,-5.78 2.08,-15.7 3,-32.77l2.08 -37.85c1.3,-23.57 -0.18,-25.65 -14.99,-26.96l0 -7.33 44.02 0 32.81 74.22 28.68 -74.22 45.54 0z"/>
  <path class="fil0" d="M7407.73 2478.96c0,20.25 1.52,21.56 14.43,22.69l0 7.3 -60.72 0 0 -7.3c12.95,-1.13 14.43,-2.44 14.43,-22.69l0 -61.84c0,-20.21 -1.48,-21.55 -14.43,-22.65l0 -7.33 60.72 0 0 7.33c-12.91,1.1 -14.43,2.44 -14.43,22.65l0 61.84z"/>
  <path class="fil0" d="M7547.15 2510.25l-16.13 0 -69.32 -88.44 -0.38 0 0 34.47c0,19.68 0.77,29.99 1.51,35.77 0.96,6.6 5.96,9.03 18.38,9.6l0 7.3 -46.63 0 0 -7.3c8.21,-0.39 13.08,-3 14,-9.6 0.78,-5.78 1.48,-16.09 1.48,-35.77l0 -34.47c0,-13.83 -0.35,-16.3 -4.09,-21.55 -2.82,-3.92 -7.51,-5.22 -14.22,-5.79l0 -7.33 41.38 0 62.41 77.78 0.39 0 0 -25.12c0,-19.68 -0.78,-29.95 -1.52,-35.8 -0.95,-6.53 -6,-8.96 -18.38,-9.53l0 -7.33 47.8 0 0 7.33c-9.35,0.36 -14.28,3 -15.17,9.53 -0.74,5.85 -1.51,16.12 -1.51,35.8l0 70.45z"/>
  <path class="fil0" d="M7601.69 2460.97l23.98 0 -11.81 -35.77 -0.57 0 -11.6 35.77zm23.77 40.68l5.65 -0.78c6.91,-0.88 7.3,-2.79 4.87,-9.52l-6.78 -19.12 -30.72 0 -5.61 17.99c-2.44,8.08 -2.44,9.95 6.17,10.86l5.43 0.57 0 7.3 -43.64 0 0 -7.3c9.53,-1.31 12.35,-2.08 18.56,-17.82l37.5 -96.87 12.91 -2.61 12.7 35.42c8.12,22.29 16.12,44.41 23.25,63.53 6,16.27 9.38,17.22 18.59,18.35l0 7.3 -58.88 0 0 -7.3z"/>
  <path class="fil0" d="M7345.36 2703.82c0,20.22 1.51,21.56 17.25,22.69l0 7.3 -65.58 0 0 -7.3c14.99,-1.13 16.47,-2.47 16.47,-22.69l0 -82.09 -3.17 0c-12.53,0 -17.61,2.3 -20.64,5.65 -2.19,2.82 -4.48,7.69 -6.92,18.16l-7.86 0c0.77,-15.73 1.87,-28.64 2.26,-38.2l5.78 0c2.86,4.27 4.73,4.66 9.77,4.66l74.72 0c4.91,0 5.82,-1.13 8.82,-4.66l5.82 0c0.21,7.87 1.17,23.81 2.05,37.64l-8.22 0.56c-2.82,-11.21 -4.87,-16.08 -7.66,-19.29 -3.21,-3.39 -9.42,-4.52 -18.38,-4.52l-4.51 0 0 82.09z"/>
  <path class="fil0" d="M7443.5 2703.82c0,20.22 1.48,21.56 14.43,22.69l0 7.3 -60.71 0 0 -7.3c12.91,-1.13 14.39,-2.47 14.39,-22.69l0 -61.84c0,-20.25 -1.48,-21.55 -14.39,-22.68l0 -7.3 60.71 0 0 7.3c-12.95,1.13 -14.43,2.43 -14.43,22.68l0 61.84z"/>
  <path class="fil0" d="M7508.41 2668.19c0,33.94 12.74,58.71 31.08,58.71 16.16,0 24.94,-15.6 24.94,-49.5 0,-37.68 -13.47,-58.45 -29.63,-58.45 -14.39,0 -26.39,16.47 -26.39,49.24zm90.91 3.21c0,40.11 -27.41,65.2 -63.32,65.2 -37.89,0 -62.44,-27.56 -62.44,-62.02 0,-30.34 20.21,-65.41 65.01,-65.41 34.33,0 60.75,25.16 60.75,62.23z"/>
  <path class="fil0" d="M7400.71 2836.86l0 7.3c-14.29,1.3 -14.99,2.08 -14.47,21.77l1.87 62.75c0.57,20.78 0.96,21.38 14.43,22.69l0 7.3 -58.66 0 0 -7.3c14.07,-1.31 14.64,-1.91 14.46,-22.69l-0.56 -65.97 -0.78 0 -36.16 93.88 -10.09 0 -34.33 -87.31 -0.38 0 -1.31 41.62c-0.53,16.09 -0.35,25.09 0.39,30.87 0.78,6.95 4.87,8.65 17.07,9.6l0 7.3 -46.32 0 0 -7.3c9.04,-0.78 12.56,-2.65 13.69,-9.6 0.95,-5.78 2.05,-15.73 3,-32.77l2.05 -37.85c1.3,-23.6 -0.18,-25.69 -15,-26.99l0 -7.3 44.07 0 32.8 74.19 28.68 -74.19 45.55 0z"/>
  <path class="fil0" d="M7429.67 2866.81c0,-20.22 -1.48,-21.52 -14,-22.65l0 -7.3 88.79 0c0.18,3.21 1.13,16.86 2.08,30.9l-8.25 0.56c-1.87,-9.17 -3.95,-14.39 -6.95,-17.39 -2.97,-3.21 -9.21,-4.34 -19.12,-4.34l-3.18 0c-7.12,0 -7.48,0 -7.48,6.56l0 36.16 9.35 0c16.12,0 16.69,-1.09 18.56,-15.34l8.25 0 0 44.2 -8.25 0c-1.87,-16.47 -2.44,-17.6 -18.56,-17.6l-9.35 0 0 30.55c0,9.74 0.36,14.43 3.74,16.09 3.04,1.51 7.3,1.69 13.13,1.69 7.47,0 15.73,-1.13 19.86,-5.61 3.17,-3.35 6.35,-10.27 9.17,-19.3l8.25 1.31c-0.95,9.17 -4.86,28.29 -6.56,33.37l-95.35 0 0 -7.3c14.39,-1.17 15.87,-2.47 15.87,-22.69l0 -61.87z"/>
  <path class="fil0" d="M7557.69 2910.69l23.99 0 -11.81 -35.8 -0.57 0 -11.61 35.8zm23.82 40.68l5.61 -0.78c6.91,-0.92 7.3,-2.82 4.86,-9.56l-6.77 -19.08 -30.69 0 -5.64 17.99c-2.44,8.04 -2.44,9.91 6.17,10.86l5.43 0.57 0 7.3 -43.64 0 0 -7.3c9.53,-1.31 12.39,-2.08 18.56,-17.85l37.5 -96.84 12.91 -2.65 12.7 35.42c8.11,22.33 16.12,44.42 23.25,63.57 6,16.27 9.38,17.18 18.59,18.35l0 7.3 -58.84 0 0 -7.3z"/>
  <path class="fil1" d="M6913.84 4466.2c0,27.09 -21.94,49.03 -49.04,49.03 -27.02,0 -48.96,-21.94 -48.96,-49.03 0,-27.06 21.94,-49.01 48.96,-49.01 27.1,0 49.04,21.95 49.04,49.01z"/>
  <path class="fil1" d="M7410.8 4547.72c0,27.1 -21.94,49 -49,49 -27.03,0 -49,-21.9 -49,-49 0,-27.06 21.97,-48.96 49,-48.96 27.06,0 49,21.9 49,48.96z"/>
  <polygon class="fil1" points="5506.47,1793.8 5506.47,1793.8 5506.47,1793.8 "/>
  <polygon class="fil1" points="7565.63,908.15 7565.63,908.15 7565.63,908.15 "/>
  <polygon class="fil1" points="8356.42,1881.92 8356.42,1881.92 8356.42,1881.92 "/>
  <polygon class="fil1" points="8737.49,3475.63 8737.49,3475.63 8737.49,3475.63 "/>
  <path class="fil1" d="M7129.92 1006.15c0,27.06 -21.95,48.97 -49,48.97 -27.06,0 -49.01,-21.91 -49.01,-48.97 0,-27.09 21.95,-49 49.01,-49 27.05,0 49,21.91 49,49z"/>
  <path class="fil1" d="M8296.13 1464.87c-1.2,27.02 -23.99,48.01 -51.05,46.85 -27.02,-1.1 -48.01,-23.99 -46.88,-51.01 1.09,-26.99 23.99,-47.98 50.97,-46.82 27.06,1.13 48.09,23.96 46.96,50.98z"/>
  <path class="fil1" d="M5838.4 3568.45c18.8,27.09 28.29,56.09 28.25,86.11 -0.07,34.25 -11.53,62.02 -72.77,104.46l-176.96 126.12 -32.59 -46.89c0,0 181.29,-129.08 184.25,-131.13 31.26,-21.59 44.59,-37.39 44.66,-62.16 0,-15.69 -5.75,-32.8 -17.11,-49.1 -17.71,-25.54 -40.42,-33.69 -60.5,-33.73 -18.17,0 -37.78,12.74 -72.6,37.04l-166.44 112.89 -31.93 -46 158.33 -107.28c44.06,-30.94 79.16,-52.18 111.76,-52.1 47.59,0.07 82.3,31.04 103.65,61.77z"/>
  <polygon class="fil1" points="5272.89,3222.94 5609.59,3104.9 5628.21,3155.91 5435.6,3391.21 5678.98,3294.94 5697.11,3344.61 5364.33,3472.42 5345.74,3421.41 5539.28,3185.82 5291.03,3272.68 "/>
  <polygon class="fil1" points="5222.55,2954.9 5574.94,2902.61 5583.27,2959.06 5230.88,3011.3 "/>
  <polygon class="fil1" points="5212.11,2530.05 5213.49,2470.92 5565.14,2613.83 5562.67,2672.5 5201.53,2780.2 5201.92,2720.97 5494.72,2638.91 "/>
  <path class="fil1" d="M5470.31 1840.96c20.88,-37.99 35.77,-52.38 57.85,-52.28 8.19,0 18.49,2.05 28.9,7.76 13.33,7.41 23.56,19.72 27.34,32.95 1.48,5.15 2.15,10.27 2.08,15.38 -0.18,21.17 -11.96,42.44 -24.34,64.7l-7.27 13.2 -100.37 -53.91 15.81 -27.8zm63.36 -107.95c-50.34,0.08 -73.63,28.9 -105.77,86.96l-41.83 74.97 313.83 170.29 27.09 -49.01 -130.42 -71.15 7.62 -14.11c21.94,-39.69 29.53,-45.72 85.51,-40.99l101.64 9.03 29.03 -52.67 -117.12 -9.99c-23.53,-2.18 -42.12,-3.91 -57.15,0.46 -5.01,1.45 -11.04,4.52 -16.83,8.61 1.34,-6.39 3.74,-12.56 3.81,-19.02 0.07,-10.05 -1.38,-19.96 -4.37,-29.03 -6.81,-20.92 -21.74,-37.85 -44.31,-50.38 -16.83,-9.27 -33.69,-14 -50.73,-13.97z"/>
  <polygon class="fil1" points="5923.56,1229.57 5968.92,1194.96 6185.11,1478.1 6139.77,1512.7 "/>
  <polygon class="fil1" points="6119.21,1090.64 6349.64,970.7 6372.11,1013.95 6282.44,1060.62 6424.47,1333.42 6373.88,1359.74 6231.85,1086.97 6141.68,1133.93 "/>
  <polygon class="fil1" points="6694.06,862.32 6754.17,845.57 6705.74,1083.9 6744.93,1219.23 6690.6,1234.89 6652.33,1100.59 6483.2,924.1 6541.73,907.13 6663.47,1033.95 "/>
  <polygon class="fil1" points="7781.07,1349.33 7961.98,1042.45 8132.16,1142.68 8107.43,1184.69 7985.9,1113.08 7935.87,1197.99 8050.28,1265.37 8026.08,1306.47 7911.67,1239.06 7829.83,1378.05 "/>
  <polygon class="fil1" points="8696.46,2142.94 8826.14,1987.72 8846.36,2049.17 8749.77,2159.7 8893.24,2191.91 8912.26,2249.8 8716.01,2202.31 8576.59,2369.39 8556.73,2308.99 8661.96,2186.33 8504.62,2150.46 8485.46,2092 "/>
  <polygon class="fil1" points="8594.58,2492.97 8949.72,2464.01 8965.81,2660.96 8917.16,2664.91 8905.73,2524.33 8807.52,2532.34 8818.28,2664.67 8770.79,2668.55 8759.96,2536.22 8599.2,2549.31 "/>
  <path class="fil1" d="M8779.68 3082.07c-69.35,0 -150.42,-37.82 -150.42,-107.77 0,-25.33 8.78,-59.37 40.14,-82.13 21.13,-15.38 48.62,-23.56 79.41,-23.56 35.35,0 99.06,9.98 132.51,56.09 11.5,15.87 17.39,34.29 17.32,54.01 0,27.27 -11.15,59.69 -40.39,80.89 -20.71,14.99 -47.95,22.47 -78.57,22.47zm-28.04 -271.46c-41.17,0 -79.03,11.11 -108.91,32.84 -53.8,38.95 -63.57,94.94 -63.57,127.67 0,120.44 113.17,168.6 198.16,168.6 40.81,0.07 78.17,-11.05 107.63,-32.39 60.01,-43.46 63.29,-108.76 63.29,-129.79 0,-105.09 -96.63,-166.93 -196.6,-166.93z"/>
  <path class="fil1" d="M8489.38 1914.94c-31.96,0 -60.85,-13.4 -80.75,-44.84 -10.16,-15.98 -15.1,-33.23 -15.17,-50.73 -0.18,-40.25 25.33,-81.59 72.04,-111.3 30.94,-19.58 61.31,-29.24 88.47,-29.14 34.33,0 62.3,15.14 80.97,44.56 11,17.32 16.01,35.81 16.01,54.26 0,39.33 -24.9,77.89 -70.02,106.5 -31.68,20.07 -63.54,30.69 -91.55,30.69zm55.46 -290.23c-35.99,0 -74.33,11.43 -111.3,34.86 -68.44,43.46 -93.38,105.62 -93.38,151.02 0,29.39 8.07,58.24 24.87,84.7 37.99,59.97 95,74.61 133.52,74.44 36.8,-0.18 75.57,-12.35 112.15,-35.6 44.1,-27.94 93.1,-79.87 93.1,-150.17 0,-29.18 -8.33,-57.93 -25.15,-84.53 -31.19,-49.14 -80.05,-74.72 -133.81,-74.72z"/>
  <path class="fil1" d="M7554.59 1208.68c-25.75,0 -63.04,-12.59 -83.86,-50.62 -10.05,-18.42 -14.56,-40.78 -14.56,-63.89 0,-63.82 42.5,-153.32 120.15,-153.32 43.57,0 98.32,32.46 98.32,113 0,51.36 -36.16,154.83 -120.05,154.83zm18.34 -317.71c-74.26,0 -138.88,49.99 -164.95,138.82 -5.79,19.68 -9.46,39.26 -9.46,58.17 0,35.6 6,63.75 20.53,90.38 32.99,60.29 93.31,80.82 139.17,80.82 25.86,0 50.84,-5.92 73.7,-18.41 60.11,-32.88 99.8,-109.15 99.8,-182.18 0,-31.68 -6.14,-61.56 -20.21,-87.1 -28.93,-52.56 -82.52,-80.5 -138.58,-80.5z"/>
  <polygon class="fil1" points="5599.71,2182.95 5647.54,2196.46 5593.53,2392.14 5248.8,2297.64 5307.68,2099.66 5354.53,2112.92 5311.28,2255.55 5406.31,2281.65 5443,2152.08 5488.83,2165.1 5452.32,2294.25 5559.84,2323.78 "/>
  <path class="fil1" d="M5690.09 1438.66c49.53,-55.46 100.12,-51.65 100.12,-51.65l8.64 46.99c0,0 -39.02,1.27 -69.57,35.49 -13.3,14.92 -20,30.51 -20,44.48 0,11.58 4.48,21.67 13.55,29.74 24.69,21.98 66.85,-2.47 93.27,-13.05 20.29,-8.39 49.11,-20.14 77.97,-20.14 21.51,0 43.74,6.14 64.09,24.27 23.71,21.2 35.6,47.76 35.6,75.7 0,30.27 -11.75,57.15 -35.42,83.65 -45.44,50.9 -106.54,56.44 -106.54,56.44l-12.13 -47.66c36.02,-8.32 63.25,-22.15 79.76,-40.71 13.02,-14.53 19.4,-30.83 19.4,-45.15 0,-13.44 -5.61,-25.97 -16.61,-35.81 -8.89,-7.94 -19.76,-10.8 -31.54,-10.55 -22.9,0 -50.31,13.09 -72.92,22.51 -43.29,17.85 -88.94,32.28 -129.79,-4.23 -20.81,-18.56 -31.85,-41.91 -31.85,-67.88 0,-27.41 10.83,-56.51 33.97,-82.44z"/>
  <path class="fil1" d="M8710.33 3482.86c-16.09,0.07 -43.36,-9.2 -53.66,-35.77 -2.61,-6.74 -3.67,-13.55 -3.6,-20.5 0.18,-19.47 9.42,-39.75 18.91,-61.06l6.07 -13.72 102.69 46.14 -11.36 27.52c-19.19,43.53 -31.61,57.36 -59.05,57.39zm-210.33 -211.24l134.62 60.92 -6.63 15.17c-18.35,41.46 -25.37,48.19 -81.53,48.44l-101.99 0.07 -24.34 55 117.58 -0.39c23.81,0 42.33,0.04 56.83,-5.54 4.7,-1.83 10.09,-4.8 15,-8.82 -0.29,3.07 -1.34,6.04 -1.38,9.07 -0.1,13.09 2.33,26.07 7.23,37.43 16.09,37.64 60.01,56.06 92.11,55.98 56.69,-0.07 78.36,-33.97 105.91,-96.34 1.02,-2.33 33.09,-76.34 33.09,-76.34l-323.92 -145.91 -22.58 51.26z"/>
  <path class="fil1" d="M8439.32 3876.85c-28.33,0 -54.89,-10.91 -82.55,-32.99 -28.04,-22.4 -57.75,-57.29 -57.75,-101.81 0,-30.94 16.79,-60.43 42.62,-92.82l23.6 -29.56 203.45 162.38 -15.53 19.48c-37.81,47.34 -63.57,75.32 -113.84,75.32zm-126.96 -268.22c-36.94,46.25 -64.95,87.59 -64.95,141.04 0,45.33 20.6,96.91 72.67,138.5 34.54,27.59 73.59,42.54 113.84,42.54 49.57,0 89.33,-14.88 151.03,-92.25l56.3 -70.76 -278.41 -222.29 -50.48 63.22z"/>
  <path class="fil1" d="M8279.23 4286.31c-331.54,117.3 -641.03,109.26 -904.98,50.28 8.64,-117.9 57.36,-243.92 132.01,-267.34 581.41,-180.34 1004.89,-722.42 1004.89,-1361.3 0,-785.85 -640.54,-1425.15 -1427.8,-1425.15 -787.33,0 -1427.83,639.3 -1427.83,1425.15 0,437.16 204.18,852.42 547.9,1121.69 -81.6,35.88 -151.24,93.88 -201.58,166.13 -26.07,-17.75 -51.19,-36.16 -74.44,-55.25l-12.98 13.02c15.56,18.77 39.65,43.57 68.65,71.33 -42.33,71.19 -66.82,154.06 -66.82,242.68 0,13.79 0.92,27.37 2.05,40.88 -511.53,-372.81 -815.44,-965.44 -815.44,-1600.48 0,-1091.99 888.47,-1980.35 1980.49,-1980.35 1092.02,0 1980.46,888.36 1980.46,1980.35 0,625.48 -285.96,1200.12 -784.58,1578.36zm-1148.93 467.47c-273.65,0 -615.17,-93.03 -849.84,-231.46 -71.12,-41.94 -155.85,-119.94 -155.85,-253.33 0,-35.98 7.05,-70.34 19.54,-101.95 87.56,72.43 178.12,140.3 234.91,171.38 13.06,7.16 20.61,10.65 35.81,10.65 36.44,0 65.97,-29.67 65.97,-66.25 0,-27.97 -15.13,-50.66 -40.22,-61.59 -48.5,-21.24 -150.1,-63.22 -259.46,-119.91 50.55,-66.75 130.24,-110.1 219.99,-110.1 41.03,0 80.54,8.78 117.37,26.17l75 43.71c238.48,145.66 851.99,519.18 1592.75,313.94 -281.16,253.72 -627.48,378.74 -1055.97,378.74zm234.53 166.69c-75.25,0 -136.98,53.27 -136.98,135.01 0,79.97 62.58,134.97 136.98,134.97 11.33,0 22.12,-1.91 32.6,-4.66 -15.7,113.17 -147.5,239.86 -317.5,296.76 -168.67,-56.41 -300.43,-184.05 -317.86,-296.62 10.41,2.65 21.17,4.52 32.43,4.52 81.13,0 136.94,-56.8 136.94,-134.97 0,-74.55 -58.52,-133.04 -134.02,-134.69 23.04,-42.13 45.12,-86.86 61.46,-134.91 93.55,16.27 185.7,25.19 271.42,25.19 70.24,0 138.47,-3.81 205.11,-10.58 8.82,38.63 21.98,78.98 37.39,120.68 -2.68,-0.14 -5.25,-0.7 -7.97,-0.7zm-968.02 -1074.35c140.76,0 272.48,72.21 349.74,187.89 -67.62,-17.15 -134.05,-39.48 -198.86,-67.1l-0.21 0.39 -2.08 -1.2c-45.33,-21.35 -93.84,-32.18 -144.25,-32.18 -112.19,0 -211.42,55 -272.73,139.1 -25.83,-14.28 -51.62,-29.31 -76.91,-45.04 75.92,-109.72 202.28,-181.86 345.3,-181.86zm557.32 280.95c-17.43,12.95 -31.4,28.43 -41.35,45.47 -51.65,-25.04 -116.56,-57.39 -158.96,-81.14 60.08,13.3 138.57,30.17 200.31,35.67zm433.46 -26.88c-41,58.49 -65.41,139.84 -72.68,222.18 -129.43,-33.37 -246.87,-78.18 -349.28,-124.89 19.44,-37.71 75.21,-64.38 117.72,-64.38 104.42,0 206.09,-11.57 304.24,-32.91zm-304.24 -24.38c-87.45,0 -173.57,-8.43 -257.99,-24.55 -81.42,-159.67 -248.28,-262.43 -428.55,-262.43 -44.31,0 -87,6.49 -127.74,17.71 -346.54,-257.5 -553.19,-666.97 -553.19,-1098.59 0,-754.24 613.44,-1367.86 1367.47,-1367.86 753.99,0 1367.44,613.62 1367.44,1367.86 0,754.24 -613.45,1367.86 -1367.44,1367.86zm-686.54 613.09c-231.74,0 -420.19,-188.98 -420.19,-421.35 0,-72.78 18.48,-141.33 51.04,-201.16 21.63,19.65 44.73,40.04 68.76,60.61 -20.43,43.18 -32.17,91.19 -32.17,141.99 0,126.4 63.78,230.83 184.36,301.98 69.25,40.85 147.67,77.72 230.71,109.82 -26.98,5.36 -54.54,8.11 -82.51,8.11zm2727.36 -1980.95c0,-1123.56 -915.53,-2037.64 -2040.82,-2037.64 -1125.33,0 -2040.86,914.08 -2040.86,2037.64 0,674.05 332.85,1302.32 890.52,1683.03 54.86,204.19 241.69,355.22 463.8,355.22 60.04,0 118.25,-11.33 173.6,-32.74 74.68,24.66 151.8,45.08 228.74,60.92 -21.62,61.88 -53.3,120.55 -83.39,171.28 0,0 0.63,-0.15 1.65,-0.36 -0.56,0.39 -1.2,0.67 -1.73,1.06l42.51 42.51c10.83,-5.93 23.08,-9.63 36.31,-9.63 42.01,0 76.16,34.18 76.16,76.24 0,41.98 -34.15,76.2 -76.16,76.2 -36.69,0 -68.87,-23.53 -85.73,-48.65 0,0 -9.91,34.25 -9.91,79.44 -0.29,146.41 159.49,313.59 381.07,384.11 221.37,-68.9 381.17,-237.35 381.07,-383.86 0,-50.41 -9.95,-79.69 -9.95,-79.69 -17.04,20.46 -44.59,48.65 -86.22,48.65 -42.01,0 -76.2,-34.22 -76.2,-76.2 0,-42.06 34.19,-76.24 76.2,-76.24 14.71,0 28.36,4.41 40.04,11.68l41.24 -41.24c0.95,0.24 1.55,0.39 1.55,0.39 -23.32,-55.78 -40.35,-107.07 -51.96,-156.32 366.96,-49.42 676.56,-204.72 922.76,-463.55l-0.21 -0.25c512.2,-389.18 805.92,-979.59 805.92,-1622z"/>
 </g>
</svg>
